<svg id="visual" viewBox="0 0 960 300" width="960" height="300" xmlns="http://www.w3.org/2000/svg" xmlns:xlink="http://www.w3.org/1999/xlink" version="1.1"><rect x="0" y="0" width="960" height="300" fill="#3c31dd"></rect><path d="M0 205L16 195.5C32 186 64 167 96 161.5C128 156 160 164 192 169C224 174 256 176 288 177.8C320 179.7 352 181.3 384 179.2C416 177 448 171 480 168.2C512 165.3 544 165.7 576 165.8C608 166 640 166 672 170.8C704 175.7 736 185.3 768 187.5C800 189.7 832 184.3 864 178C896 171.7 928 164.3 944 160.7L960 157L960 301L944 301C928 301 896 301 864 301C832 301 800 301 768 301C736 301 704 301 672 301C640 301 608 301 576 301C544 301 512 301 480 301C448 301 416 301 384 301C352 301 320 301 288 301C256 301 224 301 192 301C160 301 128 301 96 301C64 301 32 301 16 301L0 301Z" fill="#f48fb9"></path><path d="M0 194L16 197.7C32 201.3 64 208.7 96 211.7C128 214.7 160 213.3 192 210.5C224 207.7 256 203.3 288 203C320 202.7 352 206.3 384 204.5C416 202.7 448 195.3 480 195.2C512 195 544 202 576 201C608 200 640 191 672 188.3C704 185.7 736 189.3 768 192.2C800 195 832 197 864 194.2C896 191.3 928 183.7 944 179.8L960 176L960 301L944 301C928 301 896 301 864 301C832 301 800 301 768 301C736 301 704 301 672 301C640 301 608 301 576 301C544 301 512 301 480 301C448 301 416 301 384 301C352 301 320 301 288 301C256 301 224 301 192 301C160 301 128 301 96 301C64 301 32 301 16 301L0 301Z" fill="#fbc7db"></path><path d="M0 237L16 237.2C32 237.3 64 237.7 96 233C128 228.3 160 218.7 192 212.7C224 206.7 256 204.3 288 202.8C320 201.3 352 200.7 384 204.2C416 207.7 448 215.3 480 219.8C512 224.3 544 225.7 576 223.8C608 222 640 217 672 217.2C704 217.3 736 222.7 768 222.2C800 221.7 832 215.3 864 213.7C896 212 928 215 944 216.5L960 218L960 301L944 301C928 301 896 301 864 301C832 301 800 301 768 301C736 301 704 301 672 301C640 301 608 301 576 301C544 301 512 301 480 301C448 301 416 301 384 301C352 301 320 301 288 301C256 301 224 301 192 301C160 301 128 301 96 301C64 301 32 301 16 301L0 301Z" fill="#fdfdfd"></path><path d="M0 233L16 234.8C32 236.7 64 240.3 96 239.5C128 238.7 160 233.3 192 232.8C224 232.3 256 236.7 288 240.7C320 244.7 352 248.3 384 248C416 247.7 448 243.3 480 237.7C512 232 544 225 576 225.8C608 226.7 640 235.3 672 240.7C704 246 736 248 768 248.8C800 249.7 832 249.3 864 244C896 238.7 928 228.3 944 223.2L960 218L960 301L944 301C928 301 896 301 864 301C832 301 800 301 768 301C736 301 704 301 672 301C640 301 608 301 576 301C544 301 512 301 480 301C448 301 416 301 384 301C352 301 320 301 288 301C256 301 224 301 192 301C160 301 128 301 96 301C64 301 32 301 16 301L0 301Z" fill="#fdfdfd"></path><path d="M0 250L16 252.2C32 254.3 64 258.7 96 258.8C128 259 160 255 192 252.3C224 249.7 256 248.3 288 250.7C320 253 352 259 384 259C416 259 448 253 480 249.2C512 245.3 544 243.7 576 245.7C608 247.7 640 253.3 672 256.3C704 259.3 736 259.7 768 257.3C800 255 832 250 864 251.3C896 252.7 928 260.3 944 264.2L960 268L960 301L944 301C928 301 896 301 864 301C832 301 800 301 768 301C736 301 704 301 672 301C640 301 608 301 576 301C544 301 512 301 480 301C448 301 416 301 384 301C352 301 320 301 288 301C256 301 224 301 192 301C160 301 128 301 96 301C64 301 32 301 16 301L0 301Z" fill="#fbc7db"></path><path d="M0 263L16 264C32 265 64 267 96 269C128 271 160 273 192 275.3C224 277.7 256 280.3 288 278.7C320 277 352 271 384 270.5C416 270 448 275 480 278C512 281 544 282 576 282.7C608 283.3 640 283.7 672 281.5C704 279.3 736 274.7 768 271.3C800 268 832 266 864 266.3C896 266.7 928 269.3 944 270.7L960 272L960 301L944 301C928 301 896 301 864 301C832 301 800 301 768 301C736 301 704 301 672 301C640 301 608 301 576 301C544 301 512 301 480 301C448 301 416 301 384 301C352 301 320 301 288 301C256 301 224 301 192 301C160 301 128 301 96 301C64 301 32 301 16 301L0 301Z" fill="#f48fb9"></path></svg>